<svg width="272" height="139" viewBox="0 0 272 139" fill="none" xmlns="http://www.w3.org/2000/svg">
<g filter="url(#filter0_dddd_3583_19763)">
<path d="M11 57C11 50.3726 16.3726 45 23 45H238C244.627 45 250 50.3726 250 57V101H23C16.3726 101 11 95.6274 11 89V57Z" fill="#433086"/>
<path d="M31.572 69V57.876H27.072V56.31H37.926V57.876H33.426V69H31.572ZM39.2819 69V56.31H41.0999V61.584C41.3999 61.08 41.8019 60.702 42.3059 60.45C42.8219 60.186 43.3979 60.054 44.0339 60.054C46.1099 60.054 47.1479 61.23 47.1479 63.582V69H45.3299V63.69C45.3299 62.934 45.1799 62.382 44.8799 62.034C44.5919 61.686 44.1359 61.512 43.5119 61.512C42.7799 61.512 42.1919 61.746 41.7479 62.214C41.3159 62.67 41.0999 63.276 41.0999 64.032V69H39.2819ZM52.461 69.162C51.849 69.162 51.303 69.042 50.823 68.802C50.343 68.562 49.959 68.238 49.671 67.83C49.395 67.422 49.257 66.96 49.257 66.444C49.257 65.796 49.419 65.286 49.743 64.914C50.079 64.542 50.625 64.272 51.381 64.104C52.149 63.936 53.181 63.852 54.477 63.852H55.089V63.384C55.089 62.7 54.945 62.208 54.657 61.908C54.369 61.608 53.895 61.458 53.235 61.458C52.731 61.458 52.227 61.536 51.723 61.692C51.219 61.836 50.703 62.07 50.175 62.394L49.617 61.116C50.073 60.792 50.643 60.534 51.327 60.342C52.011 60.15 52.665 60.054 53.289 60.054C54.489 60.054 55.377 60.342 55.953 60.918C56.529 61.482 56.817 62.37 56.817 63.582V69H55.107V67.542C54.891 68.046 54.555 68.442 54.099 68.73C53.643 69.018 53.097 69.162 52.461 69.162ZM52.821 67.866C53.469 67.866 54.009 67.638 54.441 67.182C54.873 66.726 55.089 66.15 55.089 65.454V64.968H54.495C53.619 64.968 52.929 65.01 52.425 65.094C51.933 65.178 51.579 65.322 51.363 65.526C51.159 65.718 51.057 65.988 51.057 66.336C51.057 66.792 51.213 67.164 51.525 67.452C51.837 67.728 52.269 67.866 52.821 67.866ZM63.065 69.162C61.961 69.162 61.139 68.88 60.599 68.316C60.059 67.752 59.789 66.936 59.789 65.868V61.62H58.079V60.216H59.789V57.57H61.607V60.216H64.325V61.62H61.607V65.724C61.607 66.36 61.739 66.84 62.003 67.164C62.279 67.488 62.723 67.65 63.335 67.65C63.527 67.65 63.713 67.632 63.893 67.596C64.073 67.548 64.253 67.494 64.433 67.434L64.721 68.802C64.541 68.91 64.289 68.994 63.965 69.054C63.653 69.126 63.353 69.162 63.065 69.162ZM70.4617 58.182V56.292H72.5857V58.182H70.4617ZM70.6237 69V60.216H72.4417V69H70.6237ZM78.0787 69.162C77.3587 69.162 76.6867 69.072 76.0627 68.892C75.4387 68.7 74.9167 68.436 74.4967 68.1L75.0187 66.876C75.4627 67.188 75.9487 67.428 76.4767 67.596C77.0167 67.764 77.5567 67.848 78.0967 67.848C78.7327 67.848 79.2127 67.734 79.5367 67.506C79.8607 67.278 80.0227 66.972 80.0227 66.588C80.0227 66.276 79.9147 66.036 79.6987 65.868C79.4827 65.688 79.1587 65.55 78.7267 65.454L77.0167 65.112C75.5047 64.8 74.7487 64.02 74.7487 62.772C74.7487 61.944 75.0787 61.284 75.7387 60.792C76.3987 60.3 77.2627 60.054 78.3307 60.054C78.9427 60.054 79.5247 60.144 80.0767 60.324C80.6407 60.504 81.1087 60.774 81.4807 61.134L80.9587 62.358C80.5987 62.046 80.1847 61.806 79.7167 61.638C79.2487 61.47 78.7867 61.386 78.3307 61.386C77.7067 61.386 77.2327 61.506 76.9087 61.746C76.5847 61.974 76.4227 62.286 76.4227 62.682C76.4227 63.282 76.8187 63.666 77.6107 63.834L79.3207 64.176C80.1007 64.332 80.6887 64.596 81.0847 64.968C81.4927 65.34 81.6967 65.844 81.6967 66.48C81.6967 67.32 81.3667 67.98 80.7067 68.46C80.0467 68.928 79.1707 69.162 78.0787 69.162ZM92.5699 69.162C91.1299 69.162 89.9959 68.76 89.1679 67.956C88.3399 67.14 87.9259 66.03 87.9259 64.626C87.9259 63.726 88.1059 62.934 88.4659 62.25C88.8379 61.554 89.3479 61.014 89.9959 60.63C90.6439 60.246 91.3879 60.054 92.2279 60.054C93.4399 60.054 94.3939 60.444 95.0899 61.224C95.7859 61.992 96.1339 63.054 96.1339 64.41V65.022H89.6899C89.8219 66.846 90.7879 67.758 92.5879 67.758C93.0919 67.758 93.5839 67.68 94.0639 67.524C94.5559 67.368 95.0179 67.11 95.4499 66.75L95.9899 68.01C95.5939 68.37 95.0839 68.652 94.4599 68.856C93.8359 69.06 93.2059 69.162 92.5699 69.162ZM92.2999 61.332C91.5439 61.332 90.9439 61.566 90.4999 62.034C90.0559 62.502 89.7859 63.126 89.6899 63.906H94.6039C94.5679 63.09 94.3519 62.46 93.9559 62.016C93.5599 61.56 93.0079 61.332 92.2999 61.332ZM96.8756 69L100.53 64.464L97.1096 60.216H99.2336L101.592 63.222L103.95 60.216H106.074L102.636 64.482L106.308 69H104.148L101.574 65.76L99.0176 69H96.8756ZM110.399 69.162C109.787 69.162 109.241 69.042 108.761 68.802C108.281 68.562 107.897 68.238 107.609 67.83C107.333 67.422 107.195 66.96 107.195 66.444C107.195 65.796 107.357 65.286 107.681 64.914C108.017 64.542 108.563 64.272 109.319 64.104C110.087 63.936 111.119 63.852 112.415 63.852H113.027V63.384C113.027 62.7 112.883 62.208 112.595 61.908C112.307 61.608 111.833 61.458 111.173 61.458C110.669 61.458 110.165 61.536 109.661 61.692C109.157 61.836 108.641 62.07 108.113 62.394L107.555 61.116C108.011 60.792 108.581 60.534 109.265 60.342C109.949 60.15 110.603 60.054 111.227 60.054C112.427 60.054 113.315 60.342 113.891 60.918C114.467 61.482 114.755 62.37 114.755 63.582V69H113.045V67.542C112.829 68.046 112.493 68.442 112.037 68.73C111.581 69.018 111.035 69.162 110.399 69.162ZM110.759 67.866C111.407 67.866 111.947 67.638 112.379 67.182C112.811 66.726 113.027 66.15 113.027 65.454V64.968H112.433C111.557 64.968 110.867 65.01 110.363 65.094C109.871 65.178 109.517 65.322 109.301 65.526C109.097 65.718 108.995 65.988 108.995 66.336C108.995 66.792 109.151 67.164 109.463 67.452C109.775 67.728 110.207 67.866 110.759 67.866ZM121.128 69.162C120.228 69.162 119.448 68.976 118.788 68.604C118.14 68.22 117.636 67.686 117.276 67.002C116.916 66.306 116.736 65.49 116.736 64.554C116.736 63.162 117.132 62.064 117.924 61.26C118.716 60.456 119.784 60.054 121.128 60.054C121.68 60.054 122.226 60.15 122.766 60.342C123.306 60.534 123.75 60.798 124.098 61.134L123.522 62.412C123.186 62.1 122.814 61.872 122.406 61.728C122.01 61.572 121.632 61.494 121.272 61.494C120.42 61.494 119.76 61.764 119.292 62.304C118.836 62.832 118.608 63.588 118.608 64.572C118.608 65.556 118.836 66.33 119.292 66.894C119.76 67.446 120.42 67.722 121.272 67.722C121.632 67.722 122.01 67.65 122.406 67.506C122.814 67.35 123.186 67.116 123.522 66.804L124.098 68.1C123.75 68.424 123.3 68.682 122.748 68.874C122.208 69.066 121.668 69.162 121.128 69.162ZM129.422 69.162C128.318 69.162 127.496 68.88 126.956 68.316C126.416 67.752 126.146 66.936 126.146 65.868V61.62H124.436V60.216H126.146V57.57H127.964V60.216H130.682V61.62H127.964V65.724C127.964 66.36 128.096 66.84 128.36 67.164C128.636 67.488 129.08 67.65 129.692 67.65C129.884 67.65 130.07 67.632 130.25 67.596C130.43 67.548 130.61 67.494 130.79 67.434L131.078 68.802C130.898 68.91 130.646 68.994 130.322 69.054C130.01 69.126 129.71 69.162 129.422 69.162ZM135.115 69.162C134.155 69.162 133.435 68.892 132.955 68.352C132.487 67.812 132.253 67.02 132.253 65.976V56.31H134.071V65.868C134.071 67.056 134.557 67.65 135.529 67.65C135.673 67.65 135.805 67.644 135.925 67.632C136.057 67.62 136.189 67.596 136.321 67.56L136.285 69.018C135.877 69.114 135.487 69.162 135.115 69.162ZM138.444 72.24L140.01 68.766L136.338 60.216H138.282L140.982 66.894L143.718 60.216H145.59L140.352 72.24H138.444ZM154 69L150.652 60.216H152.524L154.882 66.876L157.312 60.216H158.716L161.11 66.912L163.504 60.216H165.286L161.938 69H160.282L157.96 62.718L155.656 69H154ZM166.846 69V56.31H168.664V61.584C168.964 61.08 169.366 60.702 169.87 60.45C170.386 60.186 170.962 60.054 171.598 60.054C173.674 60.054 174.712 61.23 174.712 63.582V69H172.894V63.69C172.894 62.934 172.744 62.382 172.444 62.034C172.156 61.686 171.7 61.512 171.076 61.512C170.344 61.512 169.756 61.746 169.312 62.214C168.88 62.67 168.664 63.276 168.664 64.032V69H166.846ZM180.025 69.162C179.413 69.162 178.867 69.042 178.387 68.802C177.907 68.562 177.523 68.238 177.235 67.83C176.959 67.422 176.821 66.96 176.821 66.444C176.821 65.796 176.983 65.286 177.307 64.914C177.643 64.542 178.189 64.272 178.945 64.104C179.713 63.936 180.745 63.852 182.041 63.852H182.653V63.384C182.653 62.7 182.509 62.208 182.221 61.908C181.933 61.608 181.459 61.458 180.799 61.458C180.295 61.458 179.791 61.536 179.287 61.692C178.783 61.836 178.267 62.07 177.739 62.394L177.181 61.116C177.637 60.792 178.207 60.534 178.891 60.342C179.575 60.15 180.229 60.054 180.853 60.054C182.053 60.054 182.941 60.342 183.517 60.918C184.093 61.482 184.381 62.37 184.381 63.582V69H182.671V67.542C182.455 68.046 182.119 68.442 181.663 68.73C181.207 69.018 180.661 69.162 180.025 69.162ZM180.385 67.866C181.033 67.866 181.573 67.638 182.005 67.182C182.437 66.726 182.653 66.15 182.653 65.454V64.968H182.059C181.183 64.968 180.493 65.01 179.989 65.094C179.497 65.178 179.143 65.322 178.927 65.526C178.723 65.718 178.621 65.988 178.621 66.336C178.621 66.792 178.777 67.164 179.089 67.452C179.401 67.728 179.833 67.866 180.385 67.866ZM190.629 69.162C189.525 69.162 188.703 68.88 188.163 68.316C187.623 67.752 187.353 66.936 187.353 65.868V61.62H185.643V60.216H187.353V57.57H189.171V60.216H191.889V61.62H189.171V65.724C189.171 66.36 189.303 66.84 189.567 67.164C189.843 67.488 190.287 67.65 190.899 67.65C191.091 67.65 191.277 67.632 191.457 67.596C191.637 67.548 191.817 67.494 191.997 67.434L192.285 68.802C192.105 68.91 191.853 68.994 191.529 69.054C191.217 69.126 190.917 69.162 190.629 69.162ZM198.188 69V56.31H200.006V61.584C200.306 61.08 200.708 60.702 201.212 60.45C201.728 60.186 202.304 60.054 202.94 60.054C205.016 60.054 206.054 61.23 206.054 63.582V69H204.236V63.69C204.236 62.934 204.086 62.382 203.786 62.034C203.498 61.686 203.042 61.512 202.418 61.512C201.686 61.512 201.098 61.746 200.654 62.214C200.222 62.67 200.006 63.276 200.006 64.032V69H198.188ZM211.367 69.162C210.755 69.162 210.209 69.042 209.729 68.802C209.249 68.562 208.865 68.238 208.577 67.83C208.301 67.422 208.163 66.96 208.163 66.444C208.163 65.796 208.325 65.286 208.649 64.914C208.985 64.542 209.531 64.272 210.287 64.104C211.055 63.936 212.087 63.852 213.383 63.852H213.995V63.384C213.995 62.7 213.851 62.208 213.563 61.908C213.275 61.608 212.801 61.458 212.141 61.458C211.637 61.458 211.133 61.536 210.629 61.692C210.125 61.836 209.609 62.07 209.081 62.394L208.523 61.116C208.979 60.792 209.549 60.534 210.233 60.342C210.917 60.15 211.571 60.054 212.195 60.054C213.395 60.054 214.283 60.342 214.859 60.918C215.435 61.482 215.723 62.37 215.723 63.582V69H214.013V67.542C213.797 68.046 213.461 68.442 213.005 68.73C212.549 69.018 212.003 69.162 211.367 69.162ZM211.727 67.866C212.375 67.866 212.915 67.638 213.347 67.182C213.779 66.726 213.995 66.15 213.995 65.454V64.968H213.401C212.525 64.968 211.835 65.01 211.331 65.094C210.839 65.178 210.485 65.322 210.269 65.526C210.065 65.718 209.963 65.988 209.963 66.336C209.963 66.792 210.119 67.164 210.431 67.452C210.743 67.728 211.175 67.866 211.727 67.866ZM221.575 69.162C220.807 69.162 220.129 68.982 219.541 68.622C218.965 68.25 218.515 67.722 218.191 67.038C217.867 66.354 217.705 65.544 217.705 64.608C217.705 63.672 217.867 62.868 218.191 62.196C218.515 61.512 218.965 60.984 219.541 60.612C220.117 60.24 220.795 60.054 221.575 60.054C222.235 60.054 222.823 60.198 223.339 60.486C223.855 60.774 224.239 61.164 224.491 61.656V56.31H226.309V69H224.527V67.47C224.275 67.998 223.885 68.412 223.357 68.712C222.841 69.012 222.247 69.162 221.575 69.162ZM222.043 67.758C222.787 67.758 223.387 67.488 223.843 66.948C224.299 66.408 224.527 65.628 224.527 64.608C224.527 63.588 224.299 62.814 223.843 62.286C223.387 61.746 222.787 61.476 222.043 61.476C221.287 61.476 220.681 61.746 220.225 62.286C219.769 62.814 219.541 63.588 219.541 64.608C219.541 65.628 219.769 66.408 220.225 66.948C220.681 67.488 221.287 67.758 222.043 67.758ZM28.278 89V76.31H30.096V81.584C30.396 81.08 30.798 80.702 31.302 80.45C31.818 80.186 32.394 80.054 33.03 80.054C35.106 80.054 36.144 81.23 36.144 83.582V89H34.326V83.69C34.326 82.934 34.176 82.382 33.876 82.034C33.588 81.686 33.132 81.512 32.508 81.512C31.776 81.512 31.188 81.746 30.744 82.214C30.312 82.67 30.096 83.276 30.096 84.032V89H28.278ZM41.4571 89.162C40.8451 89.162 40.2991 89.042 39.8191 88.802C39.3391 88.562 38.9551 88.238 38.6671 87.83C38.3911 87.422 38.2531 86.96 38.2531 86.444C38.2531 85.796 38.4151 85.286 38.7391 84.914C39.0751 84.542 39.6211 84.272 40.3771 84.104C41.1451 83.936 42.1771 83.852 43.4731 83.852H44.0851V83.384C44.0851 82.7 43.9411 82.208 43.6531 81.908C43.3651 81.608 42.8911 81.458 42.2311 81.458C41.7271 81.458 41.2231 81.536 40.7191 81.692C40.2151 81.836 39.6991 82.07 39.1711 82.394L38.6131 81.116C39.0691 80.792 39.6391 80.534 40.3231 80.342C41.0071 80.15 41.6611 80.054 42.2851 80.054C43.4851 80.054 44.3731 80.342 44.9491 80.918C45.5251 81.482 45.8131 82.37 45.8131 83.582V89H44.1031V87.542C43.8871 88.046 43.5511 88.442 43.0951 88.73C42.6391 89.018 42.0931 89.162 41.4571 89.162ZM41.8171 87.866C42.4651 87.866 43.0051 87.638 43.4371 87.182C43.8691 86.726 44.0851 86.15 44.0851 85.454V84.968H43.4911C42.6151 84.968 41.9251 85.01 41.4211 85.094C40.9291 85.178 40.5751 85.322 40.3591 85.526C40.1551 85.718 40.0531 85.988 40.0531 86.336C40.0531 86.792 40.2091 87.164 40.5211 87.452C40.8331 87.728 41.2651 87.866 41.8171 87.866ZM48.3171 92.24V80.216H50.0991V81.71C50.3511 81.206 50.7351 80.804 51.2511 80.504C51.7671 80.204 52.3611 80.054 53.0331 80.054C53.8131 80.054 54.4911 80.24 55.0671 80.612C55.6551 80.984 56.1051 81.512 56.4171 82.196C56.7411 82.868 56.9031 83.672 56.9031 84.608C56.9031 85.544 56.7411 86.354 56.4171 87.038C56.1051 87.722 55.6551 88.25 55.0671 88.622C54.4911 88.982 53.8131 89.162 53.0331 89.162C52.3851 89.162 51.8031 89.024 51.2871 88.748C50.7831 88.46 50.3991 88.07 50.1351 87.578V92.24H48.3171ZM52.5831 87.758C53.3391 87.758 53.9391 87.488 54.3831 86.948C54.8391 86.408 55.0671 85.628 55.0671 84.608C55.0671 83.588 54.8391 82.814 54.3831 82.286C53.9391 81.746 53.3391 81.476 52.5831 81.476C51.8271 81.476 51.2211 81.746 50.7651 82.286C50.3211 82.814 50.0991 83.588 50.0991 84.608C50.0991 85.628 50.3211 86.408 50.7651 86.948C51.2211 87.488 51.8271 87.758 52.5831 87.758ZM58.9518 92.24V80.216H60.7338V81.71C60.9858 81.206 61.3698 80.804 61.8858 80.504C62.4018 80.204 62.9958 80.054 63.6678 80.054C64.4478 80.054 65.1258 80.24 65.7018 80.612C66.2898 80.984 66.7398 81.512 67.0518 82.196C67.3758 82.868 67.5378 83.672 67.5378 84.608C67.5378 85.544 67.3758 86.354 67.0518 87.038C66.7398 87.722 66.2898 88.25 65.7018 88.622C65.1258 88.982 64.4478 89.162 63.6678 89.162C63.0198 89.162 62.4378 89.024 61.9218 88.748C61.4178 88.46 61.0338 88.07 60.7698 87.578V92.24H58.9518ZM63.2178 87.758C63.9738 87.758 64.5738 87.488 65.0178 86.948C65.4738 86.408 65.7018 85.628 65.7018 84.608C65.7018 83.588 65.4738 82.814 65.0178 82.286C64.5738 81.746 63.9738 81.476 63.2178 81.476C62.4618 81.476 61.8558 81.746 61.3998 82.286C60.9558 82.814 60.7338 83.588 60.7338 84.608C60.7338 85.628 60.9558 86.408 61.3998 86.948C61.8558 87.488 62.4618 87.758 63.2178 87.758ZM73.7086 89.162C72.2686 89.162 71.1346 88.76 70.3066 87.956C69.4786 87.14 69.0646 86.03 69.0646 84.626C69.0646 83.726 69.2446 82.934 69.6046 82.25C69.9766 81.554 70.4866 81.014 71.1346 80.63C71.7826 80.246 72.5266 80.054 73.3666 80.054C74.5786 80.054 75.5326 80.444 76.2286 81.224C76.9246 81.992 77.2726 83.054 77.2726 84.41V85.022H70.8286C70.9606 86.846 71.9266 87.758 73.7266 87.758C74.2306 87.758 74.7226 87.68 75.2026 87.524C75.6946 87.368 76.1566 87.11 76.5886 86.75L77.1286 88.01C76.7326 88.37 76.2226 88.652 75.5986 88.856C74.9746 89.06 74.3446 89.162 73.7086 89.162ZM73.4386 81.332C72.6826 81.332 72.0826 81.566 71.6386 82.034C71.1946 82.502 70.9246 83.126 70.8286 83.906H75.7426C75.7066 83.09 75.4906 82.46 75.0946 82.016C74.6986 81.56 74.1466 81.332 73.4386 81.332ZM79.2546 89V80.216H81.0186V81.674C81.3186 81.146 81.7266 80.744 82.2426 80.468C82.7706 80.192 83.3586 80.054 84.0066 80.054C86.0826 80.054 87.1206 81.23 87.1206 83.582V89H85.3026V83.69C85.3026 82.934 85.1526 82.382 84.8526 82.034C84.5646 81.686 84.1086 81.512 83.4846 81.512C82.7526 81.512 82.1646 81.746 81.7206 82.214C81.2886 82.67 81.0726 83.276 81.0726 84.032V89H79.2546ZM93.7477 89.162C92.3077 89.162 91.1737 88.76 90.3457 87.956C89.5177 87.14 89.1037 86.03 89.1037 84.626C89.1037 83.726 89.2837 82.934 89.6437 82.25C90.0157 81.554 90.5257 81.014 91.1737 80.63C91.8217 80.246 92.5657 80.054 93.4057 80.054C94.6177 80.054 95.5717 80.444 96.2677 81.224C96.9637 81.992 97.3117 83.054 97.3117 84.41V85.022H90.8677C90.9997 86.846 91.9657 87.758 93.7657 87.758C94.2697 87.758 94.7617 87.68 95.2417 87.524C95.7337 87.368 96.1957 87.11 96.6277 86.75L97.1677 88.01C96.7717 88.37 96.2617 88.652 95.6377 88.856C95.0137 89.06 94.3837 89.162 93.7477 89.162ZM93.4777 81.332C92.7217 81.332 92.1217 81.566 91.6777 82.034C91.2337 82.502 90.9637 83.126 90.8677 83.906H95.7817C95.7457 83.09 95.5297 82.46 95.1337 82.016C94.7377 81.56 94.1857 81.332 93.4777 81.332ZM102.642 89.162C101.874 89.162 101.196 88.982 100.608 88.622C100.032 88.25 99.5816 87.722 99.2576 87.038C98.9336 86.354 98.7716 85.544 98.7716 84.608C98.7716 83.672 98.9336 82.868 99.2576 82.196C99.5816 81.512 100.032 80.984 100.608 80.612C101.184 80.24 101.862 80.054 102.642 80.054C103.302 80.054 103.89 80.198 104.406 80.486C104.922 80.774 105.306 81.164 105.558 81.656V76.31H107.376V89H105.594V87.47C105.342 87.998 104.952 88.412 104.424 88.712C103.908 89.012 103.314 89.162 102.642 89.162ZM103.11 87.758C103.854 87.758 104.454 87.488 104.91 86.948C105.366 86.408 105.594 85.628 105.594 84.608C105.594 83.588 105.366 82.814 104.91 82.286C104.454 81.746 103.854 81.476 103.11 81.476C102.354 81.476 101.748 81.746 101.292 82.286C100.836 82.814 100.608 83.588 100.608 84.608C100.608 85.628 100.836 86.408 101.292 86.948C101.748 87.488 102.354 87.758 103.11 87.758ZM117.033 89L113.685 80.216H115.557L117.915 86.876L120.345 80.216H121.749L124.143 86.912L126.537 80.216H128.319L124.971 89H123.315L120.993 82.718L118.689 89H117.033ZM129.718 78.182V76.292H131.842V78.182H129.718ZM129.88 89V80.216H131.698V89H129.88ZM138.001 89.162C136.897 89.162 136.075 88.88 135.535 88.316C134.995 87.752 134.725 86.936 134.725 85.868V81.62H133.015V80.216H134.725V77.57H136.543V80.216H139.261V81.62H136.543V85.724C136.543 86.36 136.675 86.84 136.939 87.164C137.215 87.488 137.659 87.65 138.271 87.65C138.463 87.65 138.649 87.632 138.829 87.596C139.009 87.548 139.189 87.494 139.369 87.434L139.657 88.802C139.477 88.91 139.225 88.994 138.901 89.054C138.589 89.126 138.289 89.162 138.001 89.162ZM140.831 89V76.31H142.649V81.584C142.949 81.08 143.351 80.702 143.855 80.45C144.371 80.186 144.947 80.054 145.583 80.054C147.659 80.054 148.697 81.23 148.697 83.582V89H146.879V83.69C146.879 82.934 146.729 82.382 146.429 82.034C146.141 81.686 145.685 81.512 145.061 81.512C144.329 81.512 143.741 81.746 143.297 82.214C142.865 82.67 142.649 83.276 142.649 84.032V89H140.831ZM155.966 89V80.216H157.73V81.638C157.994 81.134 158.36 80.744 158.828 80.468C159.296 80.192 159.842 80.054 160.466 80.054C161.81 80.054 162.68 80.642 163.076 81.818C163.352 81.266 163.748 80.834 164.264 80.522C164.78 80.21 165.368 80.054 166.028 80.054C167.996 80.054 168.98 81.23 168.98 83.582V89H167.162V83.672C167.162 82.928 167.03 82.382 166.766 82.034C166.514 81.686 166.094 81.512 165.506 81.512C164.846 81.512 164.324 81.746 163.94 82.214C163.556 82.67 163.364 83.294 163.364 84.086V89H161.546V83.672C161.546 82.928 161.42 82.382 161.168 82.034C160.916 81.686 160.496 81.512 159.908 81.512C159.248 81.512 158.726 81.746 158.342 82.214C157.97 82.67 157.784 83.294 157.784 84.086V89H155.966ZM175.644 89.162C174.204 89.162 173.07 88.76 172.242 87.956C171.414 87.14 171 86.03 171 84.626C171 83.726 171.18 82.934 171.54 82.25C171.912 81.554 172.422 81.014 173.07 80.63C173.718 80.246 174.462 80.054 175.302 80.054C176.514 80.054 177.468 80.444 178.164 81.224C178.86 81.992 179.208 83.054 179.208 84.41V85.022H172.764C172.896 86.846 173.862 87.758 175.662 87.758C176.166 87.758 176.658 87.68 177.138 87.524C177.63 87.368 178.092 87.11 178.524 86.75L179.064 88.01C178.668 88.37 178.158 88.652 177.534 88.856C176.91 89.06 176.28 89.162 175.644 89.162ZM175.374 81.332C174.618 81.332 174.018 81.566 173.574 82.034C173.13 82.502 172.86 83.126 172.764 83.906H177.678C177.642 83.09 177.426 82.46 177.03 82.016C176.634 81.56 176.082 81.332 175.374 81.332ZM181.496 85.49L180.92 76.31H183.17L182.612 85.49H181.496ZM180.974 89V86.858H183.116V89H180.974Z" fill="white" fill-opacity="0.941176"/>
</g>
<g filter="url(#filter1_dddd_3583_19763)">
<path d="M11 13C11 6.37258 16.3726 1 23 1H133C139.627 1 145 6.37258 145 13V33H23C16.3726 33 11 27.6274 11 21V13Z" fill="#433086"/>
<path d="M30.1139 23.162C28.9019 23.162 27.8519 22.898 26.9639 22.37C26.0759 21.83 25.3859 21.074 24.8939 20.102C24.4139 19.118 24.1739 17.966 24.1739 16.646C24.1739 15.314 24.4139 14.162 24.8939 13.19C25.3859 12.218 26.0759 11.468 26.9639 10.94C27.8519 10.412 28.9019 10.148 30.1139 10.148C31.3139 10.148 32.3579 10.412 33.2459 10.94C34.1459 11.468 34.8359 12.218 35.3159 13.19C35.8079 14.162 36.0539 15.308 36.0539 16.628C36.0539 17.96 35.8079 19.118 35.3159 20.102C34.8359 21.074 34.1459 21.83 33.2459 22.37C32.3579 22.898 31.3139 23.162 30.1139 23.162ZM30.1139 21.542C31.3739 21.542 32.3519 21.116 33.0479 20.264C33.7559 19.4 34.1099 18.194 34.1099 16.646C34.1099 15.098 33.7619 13.898 33.0659 13.046C32.3699 12.194 31.3859 11.768 30.1139 11.768C28.8539 11.768 27.8699 12.194 27.1619 13.046C26.4659 13.898 26.1179 15.098 26.1179 16.646C26.1179 18.194 26.4659 19.4 27.1619 20.264C27.8699 21.116 28.8539 21.542 30.1139 21.542ZM38.5989 23V10.31H40.1649L44.8629 19.076L49.5429 10.31H51.0729V23H49.3989V13.694L45.4209 21.056H44.2869L40.2909 13.73V23H38.5989ZM60.0068 23.162C58.6268 23.162 57.4628 22.904 56.5148 22.388C55.5668 21.86 54.8468 21.11 54.3548 20.138C53.8748 19.166 53.6348 18.008 53.6348 16.664C53.6348 15.332 53.8808 14.18 54.3728 13.208C54.8648 12.224 55.5788 11.468 56.5148 10.94C57.4508 10.412 58.5728 10.148 59.8808 10.148C60.7808 10.148 61.6148 10.28 62.3828 10.544C63.1508 10.808 63.7928 11.186 64.3088 11.678L63.6428 13.136C63.0668 12.656 62.4788 12.314 61.8788 12.11C61.2788 11.894 60.6128 11.786 59.8808 11.786C58.4768 11.786 57.4088 12.212 56.6768 13.064C55.9448 13.904 55.5788 15.104 55.5788 16.664C55.5788 18.26 55.9508 19.472 56.6948 20.3C57.4508 21.128 58.5788 21.542 60.0788 21.542C60.9908 21.542 61.8968 21.392 62.7968 21.092V17.69H59.7008V16.286H64.3628V22.262C63.8228 22.526 63.1508 22.742 62.3468 22.91C61.5548 23.078 60.7748 23.162 60.0068 23.162ZM67.7368 25.214L66.9448 24.602C67.2208 24.302 67.4248 24.026 67.5568 23.774C67.6888 23.522 67.7728 23.264 67.8088 23H66.8188V20.858H68.9608V22.316C68.9608 22.868 68.8708 23.372 68.6908 23.828C68.5108 24.296 68.1928 24.758 67.7368 25.214ZM76.0348 23V14.216H77.7988V15.782C78.2548 14.738 79.2028 14.156 80.6428 14.036L81.2368 14L81.3628 15.548L80.2648 15.656C78.6688 15.812 77.8708 16.634 77.8708 18.122V23H76.0348ZM86.7486 23.162C85.3086 23.162 84.1746 22.76 83.3466 21.956C82.5186 21.14 82.1046 20.03 82.1046 18.626C82.1046 17.726 82.2846 16.934 82.6446 16.25C83.0166 15.554 83.5266 15.014 84.1746 14.63C84.8226 14.246 85.5666 14.054 86.4066 14.054C87.6186 14.054 88.5726 14.444 89.2686 15.224C89.9646 15.992 90.3126 17.054 90.3126 18.41V19.022H83.8686C84.0006 20.846 84.9666 21.758 86.7666 21.758C87.2706 21.758 87.7626 21.68 88.2426 21.524C88.7346 21.368 89.1966 21.11 89.6286 20.75L90.1686 22.01C89.7726 22.37 89.2626 22.652 88.6386 22.856C88.0146 23.06 87.3846 23.162 86.7486 23.162ZM86.4786 15.332C85.7226 15.332 85.1226 15.566 84.6786 16.034C84.2346 16.502 83.9646 17.126 83.8686 17.906H88.7826C88.7466 17.09 88.5306 16.46 88.1346 16.016C87.7386 15.56 87.1866 15.332 86.4786 15.332ZM95.1026 23.162C94.4906 23.162 93.9446 23.042 93.4646 22.802C92.9846 22.562 92.6006 22.238 92.3126 21.83C92.0366 21.422 91.8986 20.96 91.8986 20.444C91.8986 19.796 92.0606 19.286 92.3846 18.914C92.7206 18.542 93.2666 18.272 94.0226 18.104C94.7906 17.936 95.8226 17.852 97.1186 17.852H97.7306V17.384C97.7306 16.7 97.5866 16.208 97.2986 15.908C97.0106 15.608 96.5366 15.458 95.8766 15.458C95.3726 15.458 94.8686 15.536 94.3646 15.692C93.8606 15.836 93.3446 16.07 92.8166 16.394L92.2586 15.116C92.7146 14.792 93.2846 14.534 93.9686 14.342C94.6526 14.15 95.3066 14.054 95.9306 14.054C97.1306 14.054 98.0186 14.342 98.5946 14.918C99.1706 15.482 99.4586 16.37 99.4586 17.582V23H97.7486V21.542C97.5326 22.046 97.1966 22.442 96.7406 22.73C96.2846 23.018 95.7386 23.162 95.1026 23.162ZM95.4626 21.866C96.1106 21.866 96.6506 21.638 97.0826 21.182C97.5146 20.726 97.7306 20.15 97.7306 19.454V18.968H97.1366C96.2606 18.968 95.5706 19.01 95.0666 19.094C94.5746 19.178 94.2206 19.322 94.0046 19.526C93.8006 19.718 93.6986 19.988 93.6986 20.336C93.6986 20.792 93.8546 21.164 94.1666 21.452C94.4786 21.728 94.9106 21.866 95.4626 21.866ZM104.825 23.162C103.865 23.162 103.145 22.892 102.665 22.352C102.197 21.812 101.963 21.02 101.963 19.976V10.31H103.781V19.868C103.781 21.056 104.267 21.65 105.239 21.65C105.383 21.65 105.515 21.644 105.635 21.632C105.767 21.62 105.899 21.596 106.031 21.56L105.995 23.018C105.587 23.114 105.197 23.162 104.825 23.162ZM110.327 23.162C109.367 23.162 108.647 22.892 108.167 22.352C107.699 21.812 107.465 21.02 107.465 19.976V10.31H109.283V19.868C109.283 21.056 109.769 21.65 110.741 21.65C110.885 21.65 111.017 21.644 111.137 21.632C111.269 21.62 111.401 21.596 111.533 21.56L111.497 23.018C111.089 23.114 110.699 23.162 110.327 23.162ZM113.656 26.24L115.222 22.766L111.55 14.216H113.494L116.194 20.894L118.93 14.216H120.802L115.564 26.24H113.656ZM123.771 19.49V18.86C123.771 18.284 123.879 17.744 124.095 17.24C124.323 16.724 124.707 16.154 125.247 15.53C125.667 15.05 125.961 14.642 126.129 14.306C126.297 13.958 126.381 13.592 126.381 13.208C126.381 12.752 126.219 12.392 125.895 12.128C125.571 11.864 125.115 11.732 124.527 11.732C123.291 11.732 122.175 12.194 121.179 13.118L120.531 11.696C121.011 11.228 121.617 10.856 122.349 10.58C123.093 10.292 123.855 10.148 124.635 10.148C125.715 10.148 126.585 10.418 127.245 10.958C127.905 11.486 128.235 12.182 128.235 13.046C128.235 13.61 128.109 14.138 127.857 14.63C127.617 15.11 127.191 15.65 126.579 16.25C126.015 16.814 125.619 17.312 125.391 17.744C125.163 18.164 125.025 18.584 124.977 19.004L124.905 19.49H123.771ZM123.267 23V20.858H125.409V23H123.267ZM130.183 19.49L129.607 10.31H131.857L131.299 19.49H130.183ZM129.661 23V20.858H131.803V23H129.661Z" fill="white" fill-opacity="0.941176"/>
</g>
<defs>
<filter id="filter0_dddd_3583_19763" x="0" y="43" width="261" height="96" filterUnits="userSpaceOnUse" color-interpolation-filters="sRGB">
<feFlood flood-opacity="0" result="BackgroundImageFix"/>
<feColorMatrix in="SourceAlpha" type="matrix" values="0 0 0 0 0 0 0 0 0 0 0 0 0 0 0 0 0 0 127 0" result="hardAlpha"/>
<feOffset dy="2"/>
<feGaussianBlur stdDeviation="2"/>
<feColorMatrix type="matrix" values="0 0 0 0 0.258824 0 0 0 0 0.258824 0 0 0 0 0.258824 0 0 0 0.14 0"/>
<feBlend mode="normal" in2="BackgroundImageFix" result="effect1_dropShadow_3583_19763"/>
<feColorMatrix in="SourceAlpha" type="matrix" values="0 0 0 0 0 0 0 0 0 0 0 0 0 0 0 0 0 0 127 0" result="hardAlpha"/>
<feOffset dy="7"/>
<feGaussianBlur stdDeviation="3.5"/>
<feColorMatrix type="matrix" values="0 0 0 0 0.258824 0 0 0 0 0.258824 0 0 0 0 0.258824 0 0 0 0.12 0"/>
<feBlend mode="normal" in2="effect1_dropShadow_3583_19763" result="effect2_dropShadow_3583_19763"/>
<feColorMatrix in="SourceAlpha" type="matrix" values="0 0 0 0 0 0 0 0 0 0 0 0 0 0 0 0 0 0 127 0" result="hardAlpha"/>
<feOffset dy="15"/>
<feGaussianBlur stdDeviation="4.5"/>
<feColorMatrix type="matrix" values="0 0 0 0 0.258824 0 0 0 0 0.258824 0 0 0 0 0.258824 0 0 0 0.07 0"/>
<feBlend mode="normal" in2="effect2_dropShadow_3583_19763" result="effect3_dropShadow_3583_19763"/>
<feColorMatrix in="SourceAlpha" type="matrix" values="0 0 0 0 0 0 0 0 0 0 0 0 0 0 0 0 0 0 127 0" result="hardAlpha"/>
<feOffset dy="27"/>
<feGaussianBlur stdDeviation="5.5"/>
<feColorMatrix type="matrix" values="0 0 0 0 0.258824 0 0 0 0 0.258824 0 0 0 0 0.258824 0 0 0 0.02 0"/>
<feBlend mode="normal" in2="effect3_dropShadow_3583_19763" result="effect4_dropShadow_3583_19763"/>
<feBlend mode="normal" in="SourceGraphic" in2="effect4_dropShadow_3583_19763" result="shape"/>
</filter>
<filter id="filter1_dddd_3583_19763" x="2" y="0" width="146" height="53" filterUnits="userSpaceOnUse" color-interpolation-filters="sRGB">
<feFlood flood-opacity="0" result="BackgroundImageFix"/>
<feColorMatrix in="SourceAlpha" type="matrix" values="0 0 0 0 0 0 0 0 0 0 0 0 0 0 0 0 0 0 127 0" result="hardAlpha"/>
<feOffset dy="1"/>
<feGaussianBlur stdDeviation="1"/>
<feColorMatrix type="matrix" values="0 0 0 0 0.160784 0 0 0 0 0.160784 0 0 0 0 0.160784 0 0 0 0.18 0"/>
<feBlend mode="normal" in2="BackgroundImageFix" result="effect1_dropShadow_3583_19763"/>
<feColorMatrix in="SourceAlpha" type="matrix" values="0 0 0 0 0 0 0 0 0 0 0 0 0 0 0 0 0 0 127 0" result="hardAlpha"/>
<feOffset dx="-1" dy="3"/>
<feGaussianBlur stdDeviation="1.5"/>
<feColorMatrix type="matrix" values="0 0 0 0 0.160784 0 0 0 0 0.160784 0 0 0 0 0.160784 0 0 0 0.15 0"/>
<feBlend mode="normal" in2="effect1_dropShadow_3583_19763" result="effect2_dropShadow_3583_19763"/>
<feColorMatrix in="SourceAlpha" type="matrix" values="0 0 0 0 0 0 0 0 0 0 0 0 0 0 0 0 0 0 127 0" result="hardAlpha"/>
<feOffset dx="-2" dy="8"/>
<feGaussianBlur stdDeviation="2.5"/>
<feColorMatrix type="matrix" values="0 0 0 0 0.160784 0 0 0 0 0.160784 0 0 0 0 0.160784 0 0 0 0.09 0"/>
<feBlend mode="normal" in2="effect2_dropShadow_3583_19763" result="effect3_dropShadow_3583_19763"/>
<feColorMatrix in="SourceAlpha" type="matrix" values="0 0 0 0 0 0 0 0 0 0 0 0 0 0 0 0 0 0 127 0" result="hardAlpha"/>
<feOffset dx="-3" dy="14"/>
<feGaussianBlur stdDeviation="3"/>
<feColorMatrix type="matrix" values="0 0 0 0 0.160784 0 0 0 0 0.160784 0 0 0 0 0.160784 0 0 0 0.03 0"/>
<feBlend mode="normal" in2="effect3_dropShadow_3583_19763" result="effect4_dropShadow_3583_19763"/>
<feBlend mode="normal" in="SourceGraphic" in2="effect4_dropShadow_3583_19763" result="shape"/>
</filter>
</defs>
</svg>
